<svg width="1200" height="1200" viewBox="0 0 1200 1200" fill="none" xmlns="http://www.w3.org/2000/svg" role="img" aria-labelledby="title desc">
  <title id="title">Excel grid symbol</title>
  <desc id="desc">A green spreadsheet-like grid symbol inspired by Excel.</desc>
  <defs>
    <linearGradient id="panel" x1="214" y1="192" x2="982" y2="1014" gradientUnits="userSpaceOnUse">
      <stop offset="0" stop-color="#2A8A56"/>
      <stop offset="1" stop-color="#185C37"/>
    </linearGradient>
    <linearGradient id="cell" x1="316" y1="322" x2="884" y2="880" gradientUnits="userSpaceOnUse">
      <stop offset="0" stop-color="#E6F5EC"/>
      <stop offset="1" stop-color="#B7DEC5"/>
    </linearGradient>
    <filter id="shadow" x="164" y="156" width="872" height="900" filterUnits="userSpaceOnUse" color-interpolation-filters="sRGB">
      <feFlood flood-opacity="0" result="BackgroundImageFix"/>
      <feColorMatrix in="SourceAlpha" type="matrix" values="0 0 0 0 0 0 0 0 0 0 0 0 0 0 0 0 0 0 127 0" result="hardAlpha"/>
      <feOffset dy="20"/>
      <feGaussianBlur stdDeviation="26"/>
      <feComposite in2="hardAlpha" operator="out"/>
      <feColorMatrix type="matrix" values="0 0 0 0 0.0941176 0 0 0 0 0.360784 0 0 0 0 0.215686 0 0 0 0.22 0"/>
      <feBlend mode="normal" in2="BackgroundImageFix" result="effect1_dropShadow_1_1"/>
      <feBlend mode="normal" in="SourceGraphic" in2="effect1_dropShadow_1_1" result="shape"/>
    </filter>
  </defs>

  <g filter="url(#shadow)">
    <rect x="216" y="208" width="768" height="784" rx="154" fill="url(#panel)"/>
    <rect x="298" y="290" width="604" height="620" rx="72" fill="#F7FCF9" fill-opacity="0.92"/>

    <rect x="298" y="290" width="604" height="126" rx="72" fill="#217346"/>
    <rect x="358" y="338" width="152" height="30" rx="15" fill="#EAF6EF" fill-opacity="0.95"/>
    <circle cx="812" cy="353" r="20" fill="#EAF6EF"/>
    <circle cx="748" cy="353" r="20" fill="#C8E5D2"/>

    <g fill="url(#cell)">
      <rect x="352" y="468" width="150" height="112" rx="28"/>
      <rect x="525" y="468" width="150" height="112" rx="28"/>
      <rect x="698" y="468" width="150" height="112" rx="28"/>
      <rect x="352" y="603" width="150" height="112" rx="28"/>
      <rect x="525" y="603" width="150" height="112" rx="28"/>
      <rect x="698" y="603" width="150" height="112" rx="28"/>
      <rect x="352" y="738" width="150" height="112" rx="28"/>
      <rect x="525" y="738" width="150" height="112" rx="28"/>
      <rect x="698" y="738" width="150" height="112" rx="28"/>
    </g>

    <g stroke="#217346" stroke-opacity="0.22" stroke-width="12">
      <path d="M513.5 468V850"/>
      <path d="M686.5 468V850"/>
      <path d="M352 591H848"/>
      <path d="M352 726H848"/>
    </g>
  </g>
</svg>
